<svg xmlns="http://www.w3.org/2000/svg" xmlns:xlink="http://www.w3.org/1999/xlink" viewBox="0,0,256,256" width="64px" height="64px" fill-rule="nonzero"><g fill="#e5347b" fill-rule="nonzero" stroke="none" stroke-width="1" stroke-linecap="butt" stroke-linejoin="miter" stroke-miterlimit="10" stroke-dasharray="" stroke-dashoffset="0" font-family="none" font-weight="none" font-size="none" text-anchor="none" style="mix-blend-mode: normal"><g transform="scale(4,4)"><path d="M19,6c-1.65234,0 -3,1.34766 -3,3v46.02734c0,0.75781 0.41797,1.44141 1.09375,1.78516c0.67578,0.33984 1.48047,0.27344 2.08984,-0.17187l12.22266,-8.96875c0.35547,-0.25781 0.83203,-0.25781 1.1875,0l12.22266,8.96875c0.35547,0.25781 0.76953,0.38672 1.18359,0.38672c0.30859,0 0.62109,-0.07031 0.90625,-0.21484c0.67578,-0.34375 1.09375,-1.02734 1.09375,-1.78516v-46.02734c0,-1.65234 -1.34766,-3 -3,-3zM19,8h26c0.55078,0 1,0.44922 1,1v46.02734l-12.22656,-8.96484c-0.53125,-0.39062 -1.15234,-0.58594 -1.77344,-0.58594c-0.62109,0 -1.24219,0.19531 -1.77344,0.58594l-12.22656,8.96484v-46.02734c0,-0.55078 0.44922,-1 1,-1zM22,10c-0.55469,0 -1,0.44531 -1,1v2c0,0.55469 0.44531,1 1,1c0.55469,0 1,-0.44531 1,-1v-2c0,-0.55469 -0.44531,-1 -1,-1zM27,10c-0.55469,0 -1,0.44531 -1,1v2c0,0.55469 0.44531,1 1,1c0.55469,0 1,-0.44531 1,-1v-2c0,-0.55469 -0.44531,-1 -1,-1zM32,10c-0.55469,0 -1,0.44531 -1,1v2c0,0.55469 0.44531,1 1,1c0.55469,0 1,-0.44531 1,-1v-2c0,-0.55469 -0.44531,-1 -1,-1zM37,10c-0.55469,0 -1,0.44531 -1,1v2c0,0.55469 0.44531,1 1,1c0.55469,0 1,-0.44531 1,-1v-2c0,-0.55469 -0.44531,-1 -1,-1zM42,10c-0.55469,0 -1,0.44531 -1,1v2c0,0.55469 0.44531,1 1,1c0.55469,0 1,-0.44531 1,-1v-2c0,-0.55469 -0.44531,-1 -1,-1z"></path></g></g></svg>